<?xml version="1.0" encoding="utf-8"?>
<!-- Generator: Adobe Illustrator 25.2.1, SVG Export Plug-In . SVG Version: 6.00 Build 0)  -->
<svg version="1.1" id="Layer_1" xmlns="http://www.w3.org/2000/svg" xmlns:xlink="http://www.w3.org/1999/xlink" x="0px" y="0px"
	 viewBox="0 0 100 100" style="enable-background:new 0 0 100 100;" xml:space="preserve">
<style type="text/css">
	.st0{fill:#00FF8A;}
	.st1{opacity:0.1;fill:#00FF8A;enable-background:new    ;}
</style>
<g>
	<path class="st0" d="M49.9,97.9c-0.4,0-0.8,0-1.3-0.1l0,0C37.6,97.4,28,91.1,22.9,82c-2.5-4.5-3.9-9.6-3.9-15.1V2.1
		c8.6,0,15.5,6.3,15.5,12.9l0,51c0,8.1,6.2,15.8,14.4,16.4c8.7,0.6,16-6,16.5-14.5V67c0-8.3-6.5-15-14.6-15.5c0,0-0.1,0-0.1,0
		c-0.2,0-0.5,0-0.7,0h-0.1c-8.4,0.1-15.4,7.4-15.4,15.9l0-27.3c5.2-3,11.5-4.6,18.1-4c15,1.2,27.2,13.5,28.3,28.6
		c1.3,17.7-12.6,32.5-29.8,33.2L49.9,97.9z"/>
	<path class="st0" d="M72.5,80.2c-0.1,0.5-0.2,1-0.4,1.5c0,0.1-0.1,0.2-0.1,0.3c0,0.2-0.1,0.3-0.2,0.5c-0.2,0.2-0.3,0.5-0.3,0.8
		c0,0,0,0,0,0.1c0,0,0,0.1,0,0.1c0,0.1-0.1,0.2-0.1,0.2c0,0,0,0,0,0v0.1c-0.2,0.3-0.3,0.7-0.5,1"/>
	<path class="st0" d="M71.4,83.4L71.4,83.4c0,0.1-0.1,0.2-0.1,0.2C71.3,83.6,71.4,83.5,71.4,83.4z"/>
	<path class="st1" d="M72,82c-0.1,0.3-0.2,0.5-0.3,0.8c-0.1,0.2-0.2,0.3-0.2,0.5c0.1-0.2,0.2-0.5,0.3-0.8C71.9,82.3,71.9,82.2,72,82
		z"/>
</g>
</svg>
