<?xml version="1.0" encoding="utf-8"?>
<!-- Generator: Adobe Illustrator 25.2.1, SVG Export Plug-In . SVG Version: 6.00 Build 0)  -->
<svg version="1.1" id="Layer_1" xmlns="http://www.w3.org/2000/svg" xmlns:xlink="http://www.w3.org/1999/xlink" x="0px" y="0px"
	 viewBox="0 0 372.7 100" style="enable-background:new 0 0 372.7 100;" xml:space="preserve">
<style type="text/css">
	.st0{fill:#00FF8A;}
	.st1{opacity:0.1;fill:#00FF8A;enable-background:new    ;}
	.st2{fill:#00FF8A;stroke:#1D1D1B;stroke-width:14;stroke-miterlimit:10;}
</style>
<path class="st0" d="M144.5,35.1V70c0,12.4-10,22.8-23.4,25.7c-2.3,0.5-4.9,0.8-7.4,0.8c-17,0-30.8-11.9-30.8-26.4V50
	c0-4.1,1.7-7.8,4.4-10.5c2.7-2.7,6.4-4.4,10.5-4.4h0.8V70c0,5.9,7,10.9,15.3,10.9c2.6,0,5.2-0.5,7.4-1.5c4.7-1.9,7.9-5.4,7.9-9.5
	V45.8c0-5.9,4.8-10.7,10.7-10.7H144.5z"/>
<g>
	<path class="st0" d="M44.6,96.7c-0.4,0-0.8,0-1.3-0.1l0,0c-10.7-0.4-20-6.5-25-15.4c-2.4-4.4-3.8-9.3-3.8-14.7v-63
		c8.4,0,15.1,6.1,15.1,12.5v49.6c0,7.9,6,15.4,14,15.9c8.5,0.6,15.6-5.8,16-14.1v-0.9c0-8.1-6.3-14.6-14.2-15.1h-0.1
		c-0.2,0-0.5,0-0.7,0h-0.1c-8.2,0.1-15,7.2-15,15.5V40.5c5.1-2.9,11.2-4.5,17.6-3.9c14.6,1.2,26.4,13.1,27.5,27.8
		C76,81.6,62.5,96,45.8,96.7L44.6,96.7z"/>
	<path class="st0" d="M66.6,79.5c-0.1,0.5-0.2,1-0.4,1.5c0,0.1-0.1,0.2-0.1,0.3c0,0.2-0.1,0.3-0.2,0.5c-0.2,0.2-0.3,0.5-0.3,0.8
		c0,0,0,0,0,0.1v0.1c0,0.1-0.1,0.2-0.1,0.2l0,0V83c-0.2,0.3-0.3,0.7-0.5,1"/>
	<path class="st0" d="M65.5,82.6L65.5,82.6c0,0.1-0.1,0.2-0.1,0.2S65.5,82.7,65.5,82.6z"/>
	<path class="st1" d="M66.1,81.2c-0.1,0.3-0.2,0.5-0.3,0.8c-0.1,0.2-0.2,0.3-0.2,0.5c0.1-0.2,0.2-0.5,0.3-0.8
		C66,81.5,66,81.4,66.1,81.2z"/>
</g>
<g>
	<path class="st0" d="M181.3,96.5c-0.4,0-0.8,0-1.3-0.1l0,0c-10.7-0.4-20-6.5-25-15.4c-2.4-4.4-3.8-9.3-3.8-14.7v-63
		c8.4,0,15.1,6.1,15.1,12.5v49.6c0,7.9,6,15.4,14,15.9c8.5,0.6,15.6-5.8,16-14.1v-0.9c0-8.1-6.3-14.6-14.2-15.1h-0.1
		c-0.2,0-0.5,0-0.7,0h-0.1c-8.2,0.1-15,7.2-15,15.5V40.3c5.1-2.9,11.2-4.5,17.6-3.9c14.6,1.2,26.4,13.1,27.5,27.8
		c1.3,17.2-12.2,31.6-29,32.3L181.3,96.5z"/>
	<path class="st0" d="M203.3,79.3c-0.1,0.5-0.2,1-0.4,1.5c0,0.1-0.1,0.2-0.1,0.3c0,0.2-0.1,0.3-0.2,0.5c-0.2,0.2-0.3,0.5-0.3,0.8
		c0,0,0,0,0,0.1v0.1c0,0.1-0.1,0.2-0.1,0.2l0,0v0.1c-0.2,0.3-0.3,0.7-0.5,1"/>
	<path class="st0" d="M202.2,82.4L202.2,82.4c0,0.1-0.1,0.2-0.1,0.2S202.2,82.5,202.2,82.4z"/>
	<path class="st1" d="M202.8,81c-0.1,0.3-0.2,0.5-0.3,0.8c-0.1,0.2-0.2,0.3-0.2,0.5c0.1-0.2,0.2-0.5,0.3-0.8
		C202.7,81.3,202.7,81.2,202.8,81z"/>
</g>
<g>
	<path class="st0" d="M278.6,64.3c-1.1-14.7-12.9-26.6-27.5-27.8c-6.4-0.6-12.5,1-17.6,3.9V16c0-6.4-6.7-12.5-15.1-12.5v63
		c0,5.4,1.4,10.3,3.8,14.7c2.5,4.4,6,8.2,10.3,10.9c4.3,2.7,9.3,4.3,14.6,4.5c0.5,0.1,0.9,0.1,1.3,0.1h1.2
		C266.3,95.9,279.8,81.5,278.6,64.3z M263.5,67.4c-0.5,8.3-7.6,14.7-16,14.1c-7.7-0.6-13.6-7.6-14-15.2c0,0.2,0,0.4,0,0.6v-1.4
		c0,0.2,0,0.4,0,0.6c0.4-7.9,7-14.6,15-14.7h0.9c7.9,0.5,14.2,7,14.2,15.1V67.4z"/>
	<path class="st0" d="M233.5,66.2c0,0,0,0.1,0,0.1c0,0.2,0,0.4,0,0.6v-1.4C233.5,65.8,233.5,66,233.5,66.2z"/>
</g>
<g>
	<path class="st0" d="M361.5,84c-5.6,7.1-14.2,11.7-24,11.7c-17.5,0-31.6-14.7-30.4-32.5c0.9-15,13-27.2,27.9-28.4
		c10.5-0.8,20,3.7,26.1,11.1c2.1,2.6,0.2,6.6-3.2,6.6h-4.3c-4.2,0-8.3-0.7-12.4-1.8c-1.2-0.3-2.4-0.5-3.7-0.5
		c-2.9,0-5.6,0.8-7.9,2.2l-0.9,0.6c-3.8,2.7-6.2,7.1-6.2,12.2c0,5,2.5,9.4,6.2,12.2v0.1h0.1c2.5,1.7,5.4,2.8,8.6,2.8
		c1.3,0,2.5-0.2,3.7-0.5c5.2-1.3,10.6-2.3,16-2.3l1.1,0C361.7,77.5,363.6,81.4,361.5,84z"/>
	<path class="st0" d="M349.8,71.2h-10c-3.3,0-6-2.7-6-6v0c0-3.3,2.7-6,6-6h10c3.3,0,6,2.7,6,6v0C355.8,68.5,353.1,71.2,349.8,71.2z"
		/>
</g>
<path class="st2" d="M389.1,230.4"/>
<path class="st0" d="M297.4,95.7L297.4,95.7c-7.2,0-13-5.8-13-13V5.3c0-1.1,0.9-2,2-2l0,0c7.2,0,13,5.8,13,13v77.4
	C299.4,94.8,298.5,95.7,297.4,95.7z"/>
</svg>
