<?xml version="1.0" encoding="utf-8"?>
<!-- Generator: Adobe Illustrator 25.2.1, SVG Export Plug-In . SVG Version: 6.00 Build 0)  -->
<svg version="1.1" id="Layer_1" xmlns="http://www.w3.org/2000/svg" xmlns:xlink="http://www.w3.org/1999/xlink" x="0px" y="0px"
	 viewBox="0 0 408.62 100" style="enable-background:new 0 0 408.62 100;" xml:space="preserve">
<style type="text/css">
	.st0{fill:#0094FF;}
	.st1{opacity:0.1;fill:#0094FF;}
	.st2{fill:#0094FF;stroke:#1D1D1B;stroke-width:14;stroke-miterlimit:10;}
</style>
<g>
	<path class="st0" d="M80.87,64.74c1.26,17.69-12.36,32.5-29.62,33.18c12.24-0.66,21.96-10.78,21.96-23.19
		c0-12.82-10.39-23.21-23.21-23.21c-8.54,0-15.47,6.93-15.47,15.47V40.2c5.23-3.03,11.42-4.57,17.99-4.05
		C67.61,37.35,79.79,49.64,80.87,64.74z"/>
	<path class="st0" d="M73.21,74.73c0-6.41-2.6-12.21-6.8-16.4c-0.52-0.53-1.06-1.03-1.65-1.5c-0.57-0.47-1.16-0.92-1.78-1.34
		c-1.86-1.25-3.9-2.25-6.08-2.92c-0.54-0.17-1.1-0.32-1.66-0.45c-1.68-0.38-3.45-0.59-5.25-0.59c8.54,0,15.47,6.93,15.47,15.47
		c0,0.31-0.01,0.61-0.04,0.9c-0.48,8.48-7.82,15.14-16.54,14.53c-8.17-0.57-14.37-7.66-14.37-15.85l0-51.48
		c0-6.62-6.93-12.9-15.47-12.9V67c0,5.48,1.42,10.63,3.92,15.09c5.1,9.12,14.68,15.39,25.77,15.83c0.42,0.01,0.83,0.02,1.25,0.02
		c0.21,0,0.42,0,0.63-0.01c0.42-0.01,0.84-0.04,1.26-0.09l0.77-0.08c0.81-0.09,1.61-0.23,2.4-0.41c0.06-0.01,0.12-0.02,0.18-0.04
		c0.74-0.17,1.46-0.38,2.16-0.62c0.09-0.03,0.19-0.06,0.28-0.09c0.59-0.21,1.17-0.44,1.74-0.7c0.19-0.08,0.38-0.17,0.57-0.26
		c0.34-0.16,0.67-0.33,1-0.51c0.4-0.21,0.79-0.44,1.17-0.67c0.28-0.18,0.56-0.36,0.83-0.55c0.38-0.26,0.76-0.53,1.12-0.81
		c0.24-0.18,0.47-0.37,0.7-0.56c0.41-0.34,0.81-0.69,1.19-1.05c0.14-0.13,0.27-0.27,0.41-0.41c0.51-0.52,1.01-1.05,1.47-1.6
		c0.25-0.3,0.49-0.59,0.71-0.9c0.22-0.3,0.43-0.59,0.64-0.9c0.17-0.25,0.33-0.5,0.48-0.75c0.21-0.34,0.42-0.68,0.61-1.04
		c0.2-0.36,0.4-0.74,0.58-1.12c0.16-0.33,0.31-0.66,0.46-0.99c0-0.02,0.01-0.05,0.02-0.06c0.12-0.31,0.25-0.63,0.36-0.94
		c0.28-0.74,0.52-1.5,0.72-2.27c0.07-0.27,0.14-0.54,0.19-0.82c0.11-0.48,0.2-0.97,0.27-1.45c0.06-0.38,0.11-0.78,0.15-1.16
		c0.04-0.28,0.06-0.58,0.07-0.87C73.2,75.73,73.21,75.24,73.21,74.73z"/>
	<path class="st1" d="M73.21,74.73c0-6.41-2.6-12.21-6.8-16.4c-0.52-0.53-1.06-1.03-1.65-1.5c-0.57-0.47-1.16-0.92-1.78-1.34
		c-1.86-1.25-3.9-2.25-6.08-2.92c-0.54-0.17-1.1-0.32-1.66-0.45c-1.68-0.38-3.45-0.59-5.25-0.59c8.54,0,15.47,6.93,15.47,15.47
		c0,0.31-0.01,0.61-0.04,0.9c1.51,2.85,2.35,6.08,2.35,9.52c0,10.87-8.45,19.73-19.14,20.43c0.45,0.04,0.89,0.07,1.35,0.07
		c7.14,0,13.52-3.22,17.78-8.28c0.28-0.35,0.57-0.68,0.83-1.04c0.22-0.3,0.43-0.59,0.64-0.9c0.17-0.25,0.33-0.5,0.48-0.75
		c0.21-0.34,0.42-0.68,0.61-1.04c0.2-0.36,0.4-0.74,0.58-1.12c0.16-0.33,0.31-0.66,0.46-0.99c0-0.02,0.01-0.05,0.02-0.06
		c0.12-0.31,0.25-0.63,0.36-0.94c0.28-0.74,0.52-1.5,0.72-2.27c0.07-0.27,0.14-0.54,0.19-0.82c0.11-0.48,0.2-0.97,0.27-1.45
		c0.06-0.38,0.11-0.78,0.15-1.16c0.04-0.28,0.06-0.58,0.07-0.87C73.2,75.73,73.21,75.24,73.21,74.73z"/>
</g>
<path class="st0" d="M151.86,70.74V34.83h-4.27c-6.06,0-10.98,4.91-10.98,10.98v24.93c0,4.12-3.3,7.8-8.08,9.75
	c2.27,0.93,4.88,1.47,7.62,1.47C144.67,81.96,151.86,76.82,151.86,70.74z"/>
<path class="st0" d="M104.46,70.74V34.83h0c-8.42,0-15.24,6.82-15.24,15.24v20.67c0,15.01,14.22,27.22,31.7,27.22
	c2.63,0,5.18-0.28,7.62-0.8C114.73,94.22,104.46,83.49,104.46,70.74z"/>
<path class="st0" d="M311.3,56.88V2.22l0,0c-8.42,0-15.24,7.11-15.24,15.89v38.78c0,22.85,14.22,41.43,31.7,41.43
	c2.63,0,5.18-0.43,7.62-1.22C321.57,92.63,311.3,76.3,311.3,56.88z"/>
<path class="st0" d="M152.62,70.74V34.83h-0.76v35.91c0,6.08-7.19,11.22-15.7,11.22c-2.75,0-5.35-0.54-7.62-1.47
	c-2.27,0.93-4.88,1.47-7.62,1.47c-8.51,0-15.7-5.14-15.7-11.22V34.83h-0.76v35.91c0,12.75,10.27,23.48,24.08,26.42
	C142.35,94.22,152.62,83.49,152.62,70.74z"/>
<g>
	<path class="st0" d="M220.55,67c0,16.67-13.18,30.27-29.7,30.92c12.24-0.66,21.96-10.78,21.96-23.19
		c0-12.82-10.39-23.21-23.21-23.21c-8.54,0-15.47,6.93-15.47,15.47V40.2c4.56-2.64,9.84-4.15,15.47-4.15
		C206.69,36.06,220.55,49.91,220.55,67z"/>
	<path class="st0" d="M212.81,74.73c0-6.41-2.6-12.21-6.8-16.4c-0.52-0.53-1.06-1.03-1.65-1.5c-0.57-0.47-1.16-0.92-1.78-1.34
		c-1.86-1.25-3.9-2.25-6.08-2.92c-0.54-0.17-1.1-0.32-1.66-0.45c-1.68-0.38-3.45-0.59-5.25-0.59c8.54,0,15.47,6.93,15.47,15.47
		c0,0.31-0.01,0.61-0.04,0.9c-0.46,8.12-7.2,14.57-15.44,14.57c-8.54,0-15.47-6.93-15.47-15.47V15.11c0-6.62-6.93-12.9-15.47-12.9
		V67c0,5.48,1.42,10.63,3.92,15.09c5.1,9.12,14.68,15.39,25.77,15.83c0.42,0.01,0.83,0.02,1.25,0.02c0.42,0,0.83-0.01,1.25-0.02
		c0.46-0.02,0.9-0.09,1.35-0.14c0.02,0,0.04,0,0.06-0.01c0.81-0.09,1.61-0.23,2.4-0.41c0.06-0.01,0.12-0.02,0.18-0.04
		c0.74-0.17,1.46-0.38,2.16-0.62c0.09-0.03,0.19-0.06,0.28-0.09c0.59-0.21,1.17-0.44,1.74-0.7c0.19-0.08,0.38-0.17,0.57-0.26
		c0.34-0.16,0.67-0.33,1-0.51c0.4-0.21,0.79-0.44,1.17-0.67c0.28-0.18,0.56-0.36,0.83-0.55c0.38-0.26,0.76-0.53,1.12-0.81
		c0.24-0.18,0.47-0.37,0.7-0.56c0.41-0.34,0.81-0.69,1.19-1.05c0.14-0.13,0.28-0.27,0.41-0.41c0.47-0.47,0.92-0.95,1.35-1.46
		c0.28-0.35,0.57-0.68,0.83-1.04c0.22-0.3,0.43-0.59,0.64-0.9c0.2-0.3,0.38-0.59,0.57-0.89c0.21-0.33,0.4-0.68,0.59-1.03
		c0.17-0.32,0.35-0.66,0.51-0.99c0.16-0.33,0.31-0.66,0.46-0.99c0-0.02,0.01-0.05,0.02-0.06c0.12-0.31,0.25-0.63,0.36-0.94
		c0.28-0.74,0.52-1.5,0.72-2.27c0.07-0.27,0.14-0.54,0.19-0.82c0.11-0.48,0.2-0.97,0.27-1.45c0.06-0.38,0.11-0.78,0.15-1.16
		c0.04-0.28,0.06-0.58,0.07-0.87C212.8,75.73,212.81,75.24,212.81,74.73z"/>
	<path class="st1" d="M212.81,74.73c0-6.41-2.6-12.21-6.8-16.4c-0.52-0.53-1.06-1.03-1.65-1.5c-0.57-0.47-1.16-0.92-1.78-1.34
		c-1.86-1.25-3.9-2.25-6.08-2.92c-0.54-0.17-1.1-0.32-1.66-0.45c-1.68-0.38-3.45-0.59-5.25-0.59c8.54,0,15.47,6.93,15.47,15.47
		c0,0.31-0.01,0.61-0.04,0.9c1.51,2.85,2.35,6.08,2.35,9.52c0,10.87-8.45,19.73-19.14,20.43c0.45,0.04,0.89,0.07,1.35,0.07
		c7.14,0,13.52-3.22,17.78-8.28c0.28-0.35,0.57-0.68,0.83-1.04c0.22-0.3,0.43-0.59,0.64-0.9c0.2-0.3,0.38-0.59,0.57-0.89
		c0.21-0.33,0.4-0.68,0.59-1.03c0.17-0.32,0.35-0.66,0.51-0.99c0.16-0.33,0.31-0.66,0.46-0.99c0-0.02,0.01-0.05,0.02-0.06
		c0.12-0.31,0.25-0.63,0.36-0.94c0.28-0.74,0.52-1.5,0.72-2.27c0.07-0.27,0.14-0.54,0.19-0.82c0.11-0.48,0.2-0.97,0.27-1.45
		c0.06-0.38,0.11-0.78,0.15-1.16c0.04-0.28,0.06-0.58,0.07-0.87C212.8,75.73,212.81,75.24,212.81,74.73z"/>
</g>
<g>
	<path class="st0" d="M288.48,67c0,16.67-13.18,30.27-29.7,30.92c12.24-0.66,21.96-10.78,21.96-23.19
		c0-12.82-10.39-23.21-23.21-23.21c-8.54,0-15.47,6.93-15.47,15.47V40.2c4.56-2.64,9.84-4.15,15.47-4.15
		C274.62,36.06,288.48,49.91,288.48,67z"/>
	<path class="st0" d="M280.74,74.73c0-6.41-2.6-12.21-6.8-16.4c-0.52-0.53-1.06-1.03-1.65-1.5c-0.57-0.47-1.16-0.92-1.78-1.34
		c-1.86-1.25-3.9-2.25-6.08-2.92c-0.54-0.17-1.1-0.32-1.66-0.45c-1.68-0.38-3.45-0.59-5.25-0.59c8.54,0,15.47,6.93,15.47,15.47
		c0,0.31-0.01,0.61-0.04,0.9c-0.46,8.12-7.2,14.57-15.44,14.57c-8.54,0-15.47-6.93-15.47-15.47V15.11c0-6.62-6.93-12.9-15.47-12.9
		V67c0,5.48,1.42,10.63,3.92,15.09c5.1,9.12,14.68,15.39,25.77,15.83c0.42,0.01,0.83,0.02,1.25,0.02c0.42,0,0.83-0.01,1.25-0.02
		c0.46-0.02,0.9-0.09,1.35-0.14c0.02,0,0.04,0,0.06-0.01c0.81-0.09,1.61-0.23,2.4-0.41c0.06-0.01,0.12-0.02,0.18-0.04
		c0.74-0.17,1.46-0.38,2.16-0.62c0.09-0.03,0.19-0.06,0.28-0.09c0.59-0.21,1.17-0.44,1.74-0.7c0.19-0.08,0.38-0.17,0.57-0.26
		c0.34-0.16,0.67-0.33,1-0.51c0.4-0.21,0.79-0.44,1.17-0.67c0.28-0.18,0.56-0.36,0.83-0.55c0.38-0.26,0.76-0.53,1.12-0.81
		c0.24-0.18,0.47-0.37,0.7-0.56c0.41-0.34,0.81-0.69,1.19-1.05c0.14-0.13,0.27-0.27,0.41-0.41c0.47-0.47,0.92-0.95,1.35-1.46
		c0.28-0.35,0.57-0.68,0.83-1.04c0.22-0.3,0.43-0.59,0.64-0.9c0.2-0.3,0.38-0.59,0.57-0.89c0.21-0.33,0.4-0.68,0.59-1.03
		c0.17-0.32,0.35-0.66,0.51-0.99c0.16-0.33,0.31-0.66,0.46-0.99c0-0.02,0.01-0.05,0.02-0.06c0.12-0.31,0.25-0.63,0.36-0.94
		c0.28-0.74,0.52-1.5,0.72-2.27c0.07-0.27,0.14-0.54,0.19-0.82c0.11-0.48,0.2-0.97,0.27-1.45c0.06-0.38,0.11-0.78,0.15-1.16
		c0.04-0.28,0.06-0.58,0.07-0.87C280.73,75.73,280.74,75.24,280.74,74.73z"/>
	<path class="st1" d="M280.74,74.73c0-6.41-2.6-12.21-6.8-16.4c-0.52-0.53-1.06-1.03-1.65-1.5c-0.57-0.47-1.16-0.92-1.78-1.34
		c-1.86-1.25-3.9-2.25-6.08-2.92c-0.54-0.17-1.1-0.32-1.66-0.45c-1.68-0.38-3.45-0.59-5.25-0.59c8.54,0,15.47,6.93,15.47,15.47
		c0,0.31-0.01,0.61-0.04,0.9c1.51,2.85,2.35,6.08,2.35,9.52c0,10.87-8.45,19.73-19.14,20.43c0.45,0.04,0.89,0.07,1.35,0.07
		c7.14,0,13.52-3.22,17.78-8.28c0.28-0.35,0.57-0.68,0.83-1.04c0.22-0.3,0.43-0.59,0.64-0.9c0.2-0.3,0.38-0.59,0.57-0.89
		c0.21-0.33,0.4-0.68,0.59-1.03c0.17-0.32,0.35-0.66,0.51-0.99c0.16-0.33,0.31-0.66,0.46-0.99c0-0.02,0.01-0.05,0.02-0.06
		c0.12-0.31,0.25-0.63,0.36-0.94c0.28-0.74,0.52-1.5,0.72-2.27c0.07-0.27,0.14-0.54,0.19-0.82c0.11-0.48,0.2-0.97,0.27-1.45
		c0.06-0.38,0.11-0.78,0.15-1.16c0.04-0.28,0.06-0.58,0.07-0.87C280.73,75.73,280.74,75.24,280.74,74.73z"/>
</g>
<path class="st2" d="M408.62-15.13"/>
<path class="st0" d="M362.07,85.57c-13.6,0-24.66-11.06-24.66-24.66c0-13.17,10.38-23.96,23.39-24.62
	c-16.36,0.66-29.47,14.18-29.47,30.71c0,16.95,13.79,30.74,30.74,30.74c15.51,0,27.94-5.3,30.02-20.24h-8.06
	C380.11,85.94,371.97,85.57,362.07,85.57z"/>
<path class="st0" d="M346.71,60.4c-0.88,2.03-1.38,4.25-1.38,6.6c0,1.47,0.21,2.89,0.57,4.25c1.89,7.18,8.41,12.49,16.17,12.49
	s14.28,0.93,16.17-6.24h6.21c-3.92,8.44-12.47,8.07-22.38,8.07c-13.6,0-24.66-11.06-24.66-24.66c0-13.17,10.38-23.96,23.39-24.62
	c0.42-0.02,0.85-0.04,1.27-0.04c0.43,0,0.85,0.01,1.27,0.03c0.49,0.02,0.98,0.06,1.46,0.12c13.46,1.2,24.45,11.08,27.29,24h-14.66
	c-0.73-1.69-1.73-3.25-2.95-4.6c-3.06-3.4-7.48-5.55-12.41-5.55s-9.35,2.15-12.41,5.55C348.44,57.15,347.44,58.71,346.71,60.4z"/>
<path class="st0" d="M386.71,60.4c0,0.17,0.01,0.34,0.01,0.51c0,3.69-0.82,7.19-2.28,10.34h8.06c0.19-1.39,0.3-2.81,0.3-4.25
	c0-2.27-0.25-4.47-0.72-6.6H386.71z"/>
<path class="st0" d="M378.81,67c0,1.47-0.21,2.89-0.57,4.25h6.21c1.46-3.15,2.28-6.65,2.28-10.34c0-0.17-0.01-0.34-0.01-0.51h-9.29
	C378.31,62.42,378.81,64.65,378.81,67z"/>
<path class="st0" d="M392.81,67c0,1.44-0.11,2.86-0.3,4.25h-47.95v0c0-5.99,4.86-10.85,10.85-10.85h36.68
	C392.56,62.53,392.81,64.73,392.81,67z"/>
</svg>
